<svg xmlns="http://www.w3.org/2000/svg" width="184" height="66"><path d="M105,39L105,26L91,26Z" fill="#78c577" stroke="#78c577" stroke-width="1.51"/><path d="M91,26L91,39L105,39Z" fill="#6fc273" stroke="#6fc273" stroke-width="1.51"/><path d="M91,39L105,52L105,39Z" fill="#50ae62" stroke="#50ae62" stroke-width="1.51"/><path d="M91,26L78,25L91,39Z" fill="#89cd7f" stroke="#89cd7f" stroke-width="1.51"/><path d="M91,12L78,25L91,26Z" fill="#a3d98a" stroke="#a3d98a" stroke-width="1.51"/><path d="M105,26L104,12L91,26Z" fill="#94d183" stroke="#94d183" stroke-width="1.51"/><path d="M104,12L91,12L91,26Z" fill="#a6d98c" stroke="#a6d98c" stroke-width="1.51"/><path d="M91,39L91,53L105,52Z" fill="#4ea65e" stroke="#4ea65e" stroke-width="1.51"/><path d="M78,53L91,53L91,39Z" fill="#59aa62" stroke="#59aa62" stroke-width="1.51"/><path d="M105,39L119,26L105,26Z" fill="#6ebf71" stroke="#6ebf71" stroke-width="1.51"/><path d="M105,26L118,12L104,12Z" fill="#98d183" stroke="#98d183" stroke-width="1.51"/><path d="M119,39L119,26L105,39Z" fill="#5ab668" stroke="#5ab668" stroke-width="1.51"/><path d="M105,52L119,39L105,39Z" fill="#45a95c" stroke="#45a95c" stroke-width="1.51"/><path d="M78,25L77,40L91,39Z" fill="#7fc97a" stroke="#7fc97a" stroke-width="1.51"/><path d="M91,12L78,12L78,25Z" fill="#b5e092" stroke="#b5e092" stroke-width="1.51"/><path d="M78,25L65,26L77,40Z" fill="#97d385" stroke="#97d385" stroke-width="1.51"/><path d="M77,40L78,53L91,39Z" fill="#66b76b" stroke="#66b76b" stroke-width="1.51"/><path d="M119,26L118,12L105,26Z" fill="#85c97a" stroke="#85c97a" stroke-width="1.51"/><path d="M105,52L119,53L119,39Z" fill="#369b53" stroke="#369b53" stroke-width="1.51"/><path d="M105,66L119,53L105,52Z" fill="#2f8d4d" stroke="#2f8d4d" stroke-width="1.51"/><path d="M64,13L65,26L78,25Z" fill="#b6e192" stroke="#b6e192" stroke-width="1.51"/><path d="M77,40L64,52L78,53Z" fill="#6ab068" stroke="#6ab068" stroke-width="1.51"/><path d="M91,12L78,-1L78,12Z" fill="#c4e69f" stroke="#c4e69f" stroke-width="1.51"/><path d="M104,12L92,-1L91,12Z" fill="#b6df97" stroke="#b6df97" stroke-width="1.51"/><path d="M106,-1L92,-1L104,12Z" fill="#b3dd9f" stroke="#b3dd9f" stroke-width="1.51"/><path d="M91,53L105,66L105,52Z" fill="#3b9253" stroke="#3b9253" stroke-width="1.51"/><path d="M91,67L105,66L91,53Z" fill="#3d8a51" stroke="#3d8a51" stroke-width="1.51"/><path d="M118,12L106,-1L104,12Z" fill="#a8d78f" stroke="#a8d78f" stroke-width="1.51"/><path d="M65,26L64,39L77,40Z" fill="#8ece80" stroke="#8ece80" stroke-width="1.51"/><path d="M119,26L132,12L118,12Z" fill="#8cc67a" stroke="#8cc67a" stroke-width="1.51"/><path d="M118,12L118,-2L106,-1Z" fill="#a5d598" stroke="#a5d598" stroke-width="1.51"/><path d="M119,39L132,26L119,26Z" fill="#63b569" stroke="#63b569" stroke-width="1.51"/><path d="M132,39L132,26L119,39Z" fill="#51ab61" stroke="#51ab61" stroke-width="1.51"/><path d="M119,53L132,39L119,39Z" fill="#379e54" stroke="#379e54" stroke-width="1.51"/><path d="M78,66L91,67L91,53Z" fill="#498e55" stroke="#498e55" stroke-width="1.51"/><path d="M78,66L91,53L78,53Z" fill="#529b5c" stroke="#529b5c" stroke-width="1.51"/><path d="M78,12L64,13L78,25Z" fill="#bee596" stroke="#bee596" stroke-width="1.51"/><path d="M92,-1L78,-1L91,12Z" fill="#c1e5a8" stroke="#c1e5a8" stroke-width="1.51"/><path d="M64,52L78,66L78,53Z" fill="#5da05f" stroke="#5da05f" stroke-width="1.51"/><path d="M64,-1L64,13L78,12Z" fill="#d3eda4" stroke="#d3eda4" stroke-width="1.51"/><path d="M65,26L51,26L64,39Z" fill="#a4d98b" stroke="#a4d98b" stroke-width="1.51"/><path d="M64,39L64,52L77,40Z" fill="#77be71" stroke="#77be71" stroke-width="1.51"/><path d="M119,53L132,53L132,39Z" fill="#2c8f4b" stroke="#2c8f4b" stroke-width="1.51"/><path d="M105,66L119,66L119,53Z" fill="#248046" stroke="#248046" stroke-width="1.51"/><path d="M119,80L119,66L105,66Z" fill="#227643" stroke="#227643" stroke-width="1.51"/><path d="M132,26L132,12L119,26Z" fill="#7cbd72" stroke="#7cbd72" stroke-width="1.51"/><path d="M119,66L132,53L119,53Z" fill="#208345" stroke="#208345" stroke-width="1.51"/><path d="M132,-1L118,-2L118,12Z" fill="#9fce93" stroke="#9fce93" stroke-width="1.51"/><path d="M105,-15L92,-15L92,-1Z" fill="#b8e0ab" stroke="#b8e0ab" stroke-width="1.51"/><path d="M92,-1L78,-14L78,-1Z" fill="#c7e7b2" stroke="#c7e7b2" stroke-width="1.51"/><path d="M64,13L51,26L65,26Z" fill="#bee496" stroke="#bee496" stroke-width="1.51"/><path d="M64,39L51,39L64,52Z" fill="#81c375" stroke="#81c375" stroke-width="1.51"/><path d="M51,26L51,39L64,39Z" fill="#9cd586" stroke="#9cd586" stroke-width="1.51"/><path d="M64,13L51,13L51,26Z" fill="#ceeb9d" stroke="#ceeb9d" stroke-width="1.51"/><path d="M78,-1L64,-1L78,12Z" fill="#d0ecae" stroke="#d0ecae" stroke-width="1.51"/><path d="M65,-14L64,-1L78,-1Z" fill="#d6eeb9" stroke="#d6eeb9" stroke-width="1.51"/><path d="M132,12L132,-1L118,12Z" fill="#9ac984" stroke="#9ac984" stroke-width="1.51"/><path d="M119,66L132,66L132,53Z" fill="#1b753f" stroke="#1b753f" stroke-width="1.51"/><path d="M119,80L132,66L119,66Z" fill="#1c6f3e" stroke="#1c6f3e" stroke-width="1.51"/><path d="M105,-15L106,-1L118,-2Z" fill="#abd9a2" stroke="#abd9a2" stroke-width="1.51"/><path d="M105,-15L92,-1L106,-1Z" fill="#b4dda8" stroke="#b4dda8" stroke-width="1.51"/><path d="M91,67L92,80L105,66Z" fill="#3a804d" stroke="#3a804d" stroke-width="1.51"/><path d="M78,80L92,80L91,67Z" fill="#458552" stroke="#458552" stroke-width="1.51"/><path d="M119,-15L105,-15L118,-2Z" fill="#a6d6a0" stroke="#a6d6a0" stroke-width="1.51"/><path d="M78,66L78,80L91,67Z" fill="#4b8753" stroke="#4b8753" stroke-width="1.51"/><path d="M64,52L64,67L78,66Z" fill="#5e985d" stroke="#5e985d" stroke-width="1.51"/><path d="M50,53L64,67L64,52Z" fill="#6ca566" stroke="#6ca566" stroke-width="1.51"/><path d="M132,26L145,12L132,12Z" fill="#84bb72" stroke="#84bb72" stroke-width="1.51"/><path d="M132,12L145,12L132,-1Z" fill="#94c17e" stroke="#94c17e" stroke-width="1.51"/><path d="M132,39L146,25L132,26Z" fill="#5ca962" stroke="#5ca962" stroke-width="1.51"/><path d="M146,40L146,25L132,39Z" fill="#49a059" stroke="#49a059" stroke-width="1.51"/><path d="M146,40L132,39L132,53Z" fill="#2e924c" stroke="#2e924c" stroke-width="1.51"/><path d="M146,53L146,40L132,53Z" fill="#238443" stroke="#238443" stroke-width="1.51"/><path d="M92,80L105,81L105,66Z" fill="#357e4a" stroke="#357e4a" stroke-width="1.51"/><path d="M92,-15L78,-14L92,-1Z" fill="#c2e5b0" stroke="#c2e5b0" stroke-width="1.51"/><path d="M64,-1L51,13L64,13Z" fill="#dbf1a7" stroke="#dbf1a7" stroke-width="1.51"/><path d="M146,25L145,12L132,26Z" fill="#75b26b" stroke="#75b26b" stroke-width="1.51"/><path d="M92,80L78,80L105,81Z" fill="#3f834f" stroke="#3f834f" stroke-width="1.51"/><path d="M65,80L78,80L78,66Z" fill="#558b57" stroke="#558b57" stroke-width="1.51"/><path d="M133,-15L119,-15L132,-1Z" fill="#9dca97" stroke="#9dca97" stroke-width="1.51"/><path d="M132,-1L119,-15L118,-2Z" fill="#a0ce9a" stroke="#a0ce9a" stroke-width="1.51"/><path d="M105,81L119,80L105,66Z" fill="#297945" stroke="#297945" stroke-width="1.51"/><path d="M51,39L50,53L64,52Z" fill="#7db970" stroke="#7db970" stroke-width="1.51"/><path d="M37,52L50,53L51,39Z" fill="#86bd74" stroke="#86bd74" stroke-width="1.51"/><path d="M38,26L51,39L51,26Z" fill="#b2de91" stroke="#b2de91" stroke-width="1.51"/><path d="M146,67L146,53L132,66Z" fill="#106b38" stroke="#106b38" stroke-width="1.51"/><path d="M132,66L146,53L132,53Z" fill="#16773e" stroke="#16773e" stroke-width="1.51"/><path d="M64,-1L51,-2L51,13Z" fill="#e2f3b6" stroke="#e2f3b6" stroke-width="1.51"/><path d="M78,-14L65,-14L78,-1Z" fill="#d1ecb7" stroke="#d1ecb7" stroke-width="1.51"/><path d="M92,-15L65,-14L78,-14Z" fill="#cceab4" stroke="#cceab4" stroke-width="1.51"/><path d="M64,67L65,80L78,66Z" fill="#5a8d59" stroke="#5a8d59" stroke-width="1.51"/><path d="M78,80L65,80L105,81Z" fill="#4a8753" stroke="#4a8753" stroke-width="1.51"/><path d="M51,67L65,80L64,67Z" fill="#62915d" stroke="#62915d" stroke-width="1.51"/><path d="M65,-14L51,-2L64,-1Z" fill="#dff2bd" stroke="#dff2bd" stroke-width="1.51"/><path d="M51,13L38,26L51,26Z" fill="#cbea9c" stroke="#cbea9c" stroke-width="1.51"/><path d="M50,53L51,67L64,67Z" fill="#6b9c62" stroke="#6b9c62" stroke-width="1.51"/><path d="M119,80L132,80L132,66Z" fill="#196c3c" stroke="#196c3c" stroke-width="1.51"/><path d="M105,81L132,80L119,80Z" fill="#1f7340" stroke="#1f7340" stroke-width="1.51"/><path d="M145,12L146,-1L132,-1Z" fill="#93be87" stroke="#93be87" stroke-width="1.51"/><path d="M160,12L146,-1L145,12Z" fill="#8db77a" stroke="#8db77a" stroke-width="1.51"/><path d="M146,-1L133,-15L132,-1Z" fill="#97c291" stroke="#97c291" stroke-width="1.51"/><path d="M132,80L146,67L132,66Z" fill="#136536" stroke="#136536" stroke-width="1.51"/><path d="M37,12L38,26L51,13Z" fill="#daf1a4" stroke="#daf1a4" stroke-width="1.51"/><path d="M50,53L37,66L51,67Z" fill="#73a067" stroke="#73a067" stroke-width="1.51"/><path d="M38,26L37,39L51,39Z" fill="#a8da8d" stroke="#a8da8d" stroke-width="1.51"/><path d="M159,53L159,39L146,40Z" fill="#248747" stroke="#248747" stroke-width="1.51"/><path d="M146,40L159,39L146,25Z" fill="#449a57" stroke="#449a57" stroke-width="1.51"/><path d="M146,25L160,12L145,12Z" fill="#7eb16e" stroke="#7eb16e" stroke-width="1.51"/><path d="M159,53L146,40L146,53Z" fill="#1d7e41" stroke="#1d7e41" stroke-width="1.51"/><path d="M159,39L160,26L146,25Z" fill="#539d5c" stroke="#539d5c" stroke-width="1.51"/><path d="M37,39L37,52L51,39Z" fill="#91ca7d" stroke="#91ca7d" stroke-width="1.51"/><path d="M38,26L24,26L37,39Z" fill="#bbe297" stroke="#bbe297" stroke-width="1.51"/><path d="M51,-2L37,12L51,13Z" fill="#e8f6af" stroke="#e8f6af" stroke-width="1.51"/><path d="M173,39L173,26L160,26Z" fill="#4c9357" stroke="#4c9357" stroke-width="1.51"/><path d="M159,66L159,53L146,53Z" fill="#076c39" stroke="#076c39" stroke-width="1.51"/><path d="M160,26L160,12L146,25Z" fill="#6ea967" stroke="#6ea967" stroke-width="1.51"/><path d="M146,-1L145,-15L133,-15Z" fill="#95bf90" stroke="#95bf90" stroke-width="1.51"/><path d="M159,-14L145,-15L146,-1Z" fill="#90b98d" stroke="#90b98d" stroke-width="1.51"/><path d="M51,-2L37,-1L37,12Z" fill="#eef8be" stroke="#eef8be" stroke-width="1.51"/><path d="M65,-14L50,-15L51,-2Z" fill="#e3f4bf" stroke="#e3f4bf" stroke-width="1.51"/><path d="M92,-15L50,-15L65,-14Z" fill="#d6eeb9" stroke="#d6eeb9" stroke-width="1.51"/><path d="M51,67L50,80L65,80Z" fill="#67935e" stroke="#67935e" stroke-width="1.51"/><path d="M65,80L50,80L105,81Z" fill="#558c57" stroke="#558c57" stroke-width="1.51"/><path d="M37,66L50,80L51,67Z" fill="#6f9663" stroke="#6f9663" stroke-width="1.51"/><path d="M146,67L159,66L146,53Z" fill="#096536" stroke="#096536" stroke-width="1.51"/><path d="M132,80L146,80L146,67Z" fill="#0f6235" stroke="#0f6235" stroke-width="1.51"/><path d="M105,81L146,80L132,80Z" fill="#196c3c" stroke="#196c3c" stroke-width="1.51"/><path d="M38,-15L37,-1L51,-2Z" fill="#eff9c6" stroke="#eff9c6" stroke-width="1.51"/><path d="M37,52L37,66L50,53Z" fill="#7cac6d" stroke="#7cac6d" stroke-width="1.51"/><path d="M159,80L159,66L146,67Z" fill="#055a31" stroke="#055a31" stroke-width="1.51"/><path d="M173,39L160,26L159,39Z" fill="#3e9153" stroke="#3e9153" stroke-width="1.51"/><path d="M160,12L160,-1L146,-1Z" fill="#8cb583" stroke="#8cb583" stroke-width="1.51"/><path d="M37,12L24,26L38,26Z" fill="#d5eea3" stroke="#d5eea3" stroke-width="1.51"/><path d="M37,39L24,39L37,52Z" fill="#97cc82" stroke="#97cc82" stroke-width="1.51"/><path d="M37,52L24,52L37,66Z" fill="#82b072" stroke="#82b072" stroke-width="1.51"/><path d="M24,12L24,26L37,12Z" fill="#e4f5ab" stroke="#e4f5ab" stroke-width="1.51"/><path d="M24,26L24,39L37,39Z" fill="#b1dd93" stroke="#b1dd93" stroke-width="1.51"/><path d="M160,12L172,12L160,-1Z" fill="#86ad75" stroke="#86ad75" stroke-width="1.51"/><path d="M160,26L172,12L160,12Z" fill="#76a769" stroke="#76a769" stroke-width="1.51"/><path d="M173,39L159,39L173,52Z" fill="#207e44" stroke="#207e44" stroke-width="1.51"/><path d="M173,52L159,39L159,53Z" fill="#17773e" stroke="#17773e" stroke-width="1.51"/><path d="M24,39L24,52L37,52Z" fill="#92c37d" stroke="#92c37d" stroke-width="1.51"/><path d="M37,-1L24,12L37,12Z" fill="#f1fab6" stroke="#f1fab6" stroke-width="1.51"/><path d="M50,-15L38,-15L51,-2Z" fill="#ecf8c4" stroke="#ecf8c4" stroke-width="1.51"/><path d="M160,-1L159,-14L146,-1Z" fill="#8db68b" stroke="#8db68b" stroke-width="1.51"/><path d="M172,-15L159,-14L160,-1Z" fill="#89b088" stroke="#89b088" stroke-width="1.51"/><path d="M24,-1L24,12L37,-1Z" fill="#f6fcc4" stroke="#f6fcc4" stroke-width="1.51"/><path d="M173,26L172,12L160,26Z" fill="#689f63" stroke="#689f63" stroke-width="1.51"/><path d="M37,66L37,80L50,80Z" fill="#729764" stroke="#729764" stroke-width="1.51"/><path d="M50,80L37,80L105,81Z" fill="#5f8f5b" stroke="#5f8f5b" stroke-width="1.51"/><path d="M24,66L37,80L37,66Z" fill="#779a68" stroke="#779a68" stroke-width="1.51"/><path d="M159,66L173,52L159,53Z" fill="#026736" stroke="#026736" stroke-width="1.51"/><path d="M146,80L159,80L146,67Z" fill="#085c33" stroke="#085c33" stroke-width="1.51"/><path d="M105,81L159,80L146,80Z" fill="#136536" stroke="#136536" stroke-width="1.51"/><path d="M173,67L173,52L159,66Z" fill="#005a31" stroke="#005a31" stroke-width="1.51"/><path d="M24,-15L24,-1L37,-1Z" fill="#f8fccd" stroke="#f8fccd" stroke-width="1.51"/><path d="M24,52L24,66L37,66Z" fill="#7fa66f" stroke="#7fa66f" stroke-width="1.51"/><path d="M186,13L173,-1L172,12Z" fill="#80a26f" stroke="#80a26f" stroke-width="1.51"/><path d="M172,12L173,-1L160,-1Z" fill="#86ab7f" stroke="#86ab7f" stroke-width="1.51"/><path d="M172,80L173,67L159,66Z" fill="#00512e" stroke="#00512e" stroke-width="1.51"/><path d="M38,-15L24,-15L37,-1Z" fill="#f5fbca" stroke="#f5fbca" stroke-width="1.51"/><path d="M37,80L24,80L105,81Z" fill="#67935e" stroke="#67935e" stroke-width="1.51"/><path d="M24,66L24,80L37,80Z" fill="#7a9b6a" stroke="#7a9b6a" stroke-width="1.51"/><path d="M159,-14L172,-15L145,-15Z" fill="#8cb48a" stroke="#8cb48a" stroke-width="1.51"/><path d="M173,-1L172,-15L160,-1Z" fill="#87ac87" stroke="#87ac87" stroke-width="1.51"/><path d="M159,80L172,80L159,66Z" fill="#00542f" stroke="#00542f" stroke-width="1.51"/><path d="M105,81L172,80L159,80Z" fill="#0c5f34" stroke="#0c5f34" stroke-width="1.51"/><path d="M173,-1L186,-14L172,-15Z" fill="#84a483" stroke="#84a483" stroke-width="1.51"/><path d="M173,26L186,13L172,12Z" fill="#709c64" stroke="#709c64" stroke-width="1.51"/><path d="M173,39L186,26L173,26Z" fill="#4a8c55" stroke="#4a8c55" stroke-width="1.51"/><path d="M186,39L186,26L173,39Z" fill="#3a824d" stroke="#3a824d" stroke-width="1.51"/><path d="M186,39L173,39L173,52Z" fill="#1f7741" stroke="#1f7741" stroke-width="1.51"/><path d="M186,39L173,52L187,53Z" fill="#156939" stroke="#156939" stroke-width="1.51"/><path d="M187,53L173,52L186,66Z" fill="#025931" stroke="#025931" stroke-width="1.51"/><path d="M11,12L24,26L24,12Z" fill="#e8f6b1" stroke="#e8f6b1" stroke-width="1.51"/><path d="M11,12L10,25L24,26Z" fill="#def2af" stroke="#def2af" stroke-width="1.51"/><path d="M24,26L10,25L24,39Z" fill="#c3e5a0" stroke="#c3e5a0" stroke-width="1.51"/><path d="M24,39L11,52L24,52Z" fill="#96c482" stroke="#96c482" stroke-width="1.51"/><path d="M24,52L11,52L24,66Z" fill="#89b279" stroke="#89b279" stroke-width="1.51"/><path d="M24,66L11,80L24,80Z" fill="#7e9c6f" stroke="#7e9c6f" stroke-width="1.51"/><path d="M11,12L24,12L24,-1Z" fill="#f8fcbe" stroke="#f8fcbe" stroke-width="1.51"/><path d="M10,25L10,40L24,39Z" fill="#b6df9d" stroke="#b6df9d" stroke-width="1.51"/><path d="M10,40L11,52L24,39Z" fill="#9ece8d" stroke="#9ece8d" stroke-width="1.51"/><path d="M10,-1L11,12L24,-1Z" fill="#fbfdce" stroke="#fbfdce" stroke-width="1.51"/><path d="M186,26L186,13L173,26Z" fill="#63935d" stroke="#63935d" stroke-width="1.51"/><path d="M186,39L200,26L186,26Z" fill="#488652" stroke="#488652" stroke-width="1.51"/><path d="M200,12L187,-1L186,13Z" fill="#7e9c6d" stroke="#7e9c6d" stroke-width="1.51"/><path d="M186,66L173,52L173,67Z" fill="#00532e" stroke="#00532e" stroke-width="1.51"/><path d="M-3,12L-3,26L10,25Z" fill="#e0f3bc" stroke="#e0f3bc" stroke-width="1.51"/><path d="M24,-15L10,-1L24,-1Z" fill="#fcfdd3" stroke="#fcfdd3" stroke-width="1.51"/><path d="M187,80L186,66L173,67Z" fill="#00462a" stroke="#00462a" stroke-width="1.51"/><path d="M-4,66L10,67L11,52Z" fill="#85a880" stroke="#85a880" stroke-width="1.51"/><path d="M11,52L10,67L24,66Z" fill="#84a778" stroke="#84a778" stroke-width="1.51"/><path d="M200,26L186,13L186,26Z" fill="#62915d" stroke="#62915d" stroke-width="1.51"/><path d="M186,13L187,-1L173,-1Z" fill="#819f79" stroke="#819f79" stroke-width="1.51"/><path d="M24,80L11,80L105,81Z" fill="#6f9662" stroke="#6f9662" stroke-width="1.51"/><path d="M10,67L11,80L24,66Z" fill="#7f9d73" stroke="#7f9d73" stroke-width="1.51"/><path d="M187,-1L186,-14L173,-1Z" fill="#82a081" stroke="#82a081" stroke-width="1.51"/><path d="M24,-15L10,-15L10,-1Z" fill="#fdfed7" stroke="#fdfed7" stroke-width="1.51"/><path d="M172,80L187,80L173,67Z" fill="#004a2b" stroke="#004a2b" stroke-width="1.51"/><path d="M200,40L186,39L187,53Z" fill="#1c703e" stroke="#1c703e" stroke-width="1.51"/><path d="M105,81L187,80L172,80Z" fill="#055a31" stroke="#055a31" stroke-width="1.51"/><path d="M-3,12L10,25L11,12Z" fill="#ecf7be" stroke="#ecf7be" stroke-width="1.51"/><path d="M10,25L-3,26L10,40Z" fill="#c4e6ac" stroke="#c4e6ac" stroke-width="1.51"/><path d="M10,40L-4,52L11,52Z" fill="#98c48e" stroke="#98c48e" stroke-width="1.51"/><path d="M10,67L-4,80L11,80Z" fill="#809d7c" stroke="#809d7c" stroke-width="1.51"/><path d="M-3,12L11,12L10,-1Z" fill="#fbfdcb" stroke="#fbfdcb" stroke-width="1.51"/><path d="M187,-1L199,-15L186,-14Z" fill="#819e81" stroke="#819e81" stroke-width="1.51"/><path d="M200,40L200,26L186,39Z" fill="#387f4c" stroke="#387f4c" stroke-width="1.51"/><path d="M200,40L187,53L199,53Z" fill="#136637" stroke="#136637" stroke-width="1.51"/><path d="M-3,26L-4,40L10,40Z" fill="#b6dfa9" stroke="#b6dfa9" stroke-width="1.51"/><path d="M199,53L187,53L186,66Z" fill="#015730" stroke="#015730" stroke-width="1.51"/><path d="M-3,26L-17,39L-4,40Z" fill="#b7dfaa" stroke="#b7dfaa" stroke-width="1.51"/><path d="M-3,-2L-3,12L10,-1Z" fill="#feffdc" stroke="#feffdc" stroke-width="1.51"/><path d="M200,66L199,53L186,66Z" fill="#004e2c" stroke="#004e2c" stroke-width="1.51"/><path d="M-4,40L-4,52L10,40Z" fill="#a0cf9a" stroke="#a0cf9a" stroke-width="1.51"/><path d="M200,26L200,12L186,13Z" fill="#6e9662" stroke="#6e9662" stroke-width="1.51"/><path d="M-3,12L-17,26L-3,26Z" fill="#dff2be" stroke="#dff2be" stroke-width="1.51"/><path d="M10,-15L-3,-2L10,-1Z" fill="#fefee0" stroke="#fefee0" stroke-width="1.51"/><path d="M-4,52L-4,66L11,52Z" fill="#8cb48a" stroke="#8cb48a" stroke-width="1.51"/><path d="M200,12L200,-1L187,-1Z" fill="#809d78" stroke="#809d78" stroke-width="1.51"/><path d="M214,40L200,26L200,40Z" fill="#377f4c" stroke="#377f4c" stroke-width="1.51"/><path d="M187,80L200,66L186,66Z" fill="#004529" stroke="#004529" stroke-width="1.51"/><path d="M200,-1L199,-15L187,-1Z" fill="#819e81" stroke="#819e81" stroke-width="1.51"/><path d="M186,-14L199,-15L172,-15Z" fill="#819e81" stroke="#819e81" stroke-width="1.51"/><path d="M-17,12L-17,26L-3,12Z" fill="#ecf8c4" stroke="#ecf8c4" stroke-width="1.51"/><path d="M10,-15L-4,-15L-3,-2Z" fill="#ffffe4" stroke="#ffffe4" stroke-width="1.51"/><path d="M-4,66L-4,80L10,67Z" fill="#819e80" stroke="#819e80" stroke-width="1.51"/><path d="M11,80L-4,80L105,81Z" fill="#759966" stroke="#759966" stroke-width="1.51"/><path d="M105,81L200,80L187,80Z" fill="#00542f" stroke="#00542f" stroke-width="1.51"/><path d="M187,80L200,80L200,66Z" fill="#004529" stroke="#004529" stroke-width="1.51"/><path d="M-17,12L-3,12L-16,-2Z" fill="#fcfdd2" stroke="#fcfdd2" stroke-width="1.51"/><path d="M-4,40L-16,53L-4,52Z" fill="#98c493" stroke="#98c493" stroke-width="1.51"/><path d="M-4,52L-16,53L-4,66Z" fill="#8bb38a" stroke="#8bb38a" stroke-width="1.51"/><path d="M-4,66L-17,67L-4,80Z" fill="#819e81" stroke="#819e81" stroke-width="1.51"/><path d="M-17,26L-17,39L-3,26Z" fill="#c5e6b2" stroke="#c5e6b2" stroke-width="1.51"/><path d="M200,-1L214,-15L199,-15Z" fill="#819e81" stroke="#819e81" stroke-width="1.51"/><path d="M200,12L214,-1L200,-1Z" fill="#809d78" stroke="#809d78" stroke-width="1.51"/><path d="M200,26L213,25L200,12Z" fill="#64925d" stroke="#64925d" stroke-width="1.51"/><path d="M214,40L213,25L200,26Z" fill="#488652" stroke="#488652" stroke-width="1.51"/><path d="M214,40L200,40L213,53Z" fill="#1c6f3e" stroke="#1c6f3e" stroke-width="1.51"/><path d="M200,40L199,53L213,53Z" fill="#136637" stroke="#136637" stroke-width="1.51"/><path d="M-17,39L-16,53L-4,40Z" fill="#a0cf9a" stroke="#a0cf9a" stroke-width="1.51"/><path d="M213,53L199,53L200,66Z" fill="#015730" stroke="#015730" stroke-width="1.51"/><path d="M213,25L213,13L200,12Z" fill="#6f9663" stroke="#6f9663" stroke-width="1.51"/><path d="M214,-1L213,13L213,25Z" fill="#779968" stroke="#779968" stroke-width="1.51"/><path d="M-16,-2L-3,12L-3,-2Z" fill="#fefede" stroke="#fefede" stroke-width="1.51"/><path d="M214,66L213,53L200,66Z" fill="#004e2c" stroke="#004e2c" stroke-width="1.51"/><path d="M-4,-15L-16,-2L-3,-2Z" fill="#ffffe5" stroke="#ffffe5" stroke-width="1.51"/><path d="M-17,39L-17,67L-16,53Z" fill="#91bb8e" stroke="#91bb8e" stroke-width="1.51"/><path d="M-16,53L-17,67L-4,66Z" fill="#86a885" stroke="#86a885" stroke-width="1.51"/><path d="M213,13L214,-1L200,12Z" fill="#7e9c6d" stroke="#7e9c6d" stroke-width="1.51"/><path d="M214,40L214,-1L213,25Z" fill="#63915d" stroke="#63915d" stroke-width="1.51"/><path d="M200,80L214,66L200,66Z" fill="#004529" stroke="#004529" stroke-width="1.51"/><path d="M213,53L214,66L214,40Z" fill="#0a5e33" stroke="#0a5e33" stroke-width="1.51"/><path d="M-17,67L-17,79L-4,80Z" fill="#819e81" stroke="#819e81" stroke-width="1.51"/><path d="M-4,-15L-17,-15L-16,-2Z" fill="#ffffe5" stroke="#ffffe5" stroke-width="1.51"/><path d="M-16,-2L-17,-15L-17,12Z" fill="#ffffe5" stroke="#ffffe5" stroke-width="1.51"/><path d="M214,-1L214,-15L200,-1Z" fill="#819e81" stroke="#819e81" stroke-width="1.51"/><path d="M200,80L214,80L214,66Z" fill="#004529" stroke="#004529" stroke-width="1.51"/><path d="M105,81L214,80L200,80Z" fill="#004d2c" stroke="#004d2c" stroke-width="1.51"/></svg>